<?xml version="1.0" encoding="utf-8"?>
<!-- Generator: Adobe Illustrator 21.0.0, SVG Export Plug-In . SVG Version: 6.00 Build 0)  -->
<svg version="1.2" baseProfile="tiny" id="Layer_1" xmlns="http://www.w3.org/2000/svg" xmlns:xlink="http://www.w3.org/1999/xlink"
	 x="0px" y="0px" viewBox="0 0 750 200" overflow="auto" xml:space="preserve">
<g>
	<path fill="#231F20" d="M156.2,95c0.2-0.8,0.7-1.4,1.5-1.7l14.2-4.4c0.7-0.3,1.2-0.9,1.3-1.7l-0.7-14.4c-0.1-0.8-0.7-1.4-1.4-1.7
		l-14.7-3.5c-0.8-0.2-1.4-0.8-1.7-1.6l-1.4-4.1c-0.2-0.8-0.1-1.6,0.4-2.3l9.7-11.3c0.5-0.6,0.5-1.5,0.2-2.2l-8.3-12
		c-0.5-0.6-1.3-0.8-2.1-0.6l-14.1,5c-0.8,0.2-1.6,0.1-2.3-0.5l-3.2-2.6c-0.6-0.5-0.9-1.3-0.9-2.1l2-15c0.1-0.8-0.3-1.5-1-1.9
		L120.1,11c-0.7-0.2-1.5,0-2,0.6l-9.2,11.8c-0.3,0.5-0.9,0.9-1.5,0.9l-0.3-0.1c-2-0.4-4.7-0.6-4.7-0.6c-0.8-0.1-1.5-0.6-1.9-1.4
		L94,8.6c-0.4-0.7-1.1-1.1-1.9-1.1L78,9.8c-0.7,0.2-1.3,0.8-1.4,1.6l-1.4,14.7c-0.1,0.8-0.6,1.5-1.4,1.9l-4.7,2.3
		c-0.8,0.3-1.6,0.3-2.3-0.1l-12.8-8c-0.7-0.4-1.5-0.3-2.2,0.2l-10.4,9.2c-0.5,0.6-0.7,1.4-0.3,2.1l6.8,13.1c0.3,0.7,0.3,1.6-0.2,2.3
		l-3.4,5.3c-0.5,0.7-1.2,1.1-2,1.1l-15,0.2c-0.8,0-1.5,0.5-1.7,1.3c0,0-2.9,8.7-3.8,14.1l0,0c0,0,0.5,0.4,1.1,0.8l12.8,7.3
		c0.6,0.5,1.1,1.2,1.1,2l0.1,7.2c0,0.8-0.4,1.6-1.1,2l-12.5,8.2c-0.7,0.5-0.9,1.3-0.8,2l4,12.4c0.3,0.7,1,1.2,1.8,1.2l14.8-0.8
		c0.8,0,1.6,0.4,2,1.1l4.3,6.3c0.4,0.7,0.5,1.5,0.2,2.3l-6,13.6c-0.3,0.7-0.1,1.6,0.5,2.1l10.1,8.1c0.7,0.5,1.5,0.5,2.2,0l12.1-8.7
		c0.7-0.4,1.5-0.5,2.3-0.2l7.1,2.9c0.7,0.3,1.3,0.9,1.4,1.7l2.3,14.6c0.1,0.8,0.7,1.4,1.5,1.6l1.2,0.2c4.4,0.8,11.8,1.1,11.8,1.1
		c0.8,0,1.5-0.5,1.8-1.2l5.5-14c0.3-0.7,1-1.3,1.8-1.4l6.8-1.4c0.8-0.1,1.6,0.1,2.2,0.7l9.8,11c0.5,0.6,1.4,0.7,2.1,0.5l11.9-6.2
		c0.6-0.4,1-1.2,0.9-2l-2.9-14.8c-0.1-0.8,0.1-1.6,0.8-2.2l4.3-4.2c0.6-0.6,1.4-0.8,2.2-0.6l14.2,4c0.8,0.2,1.6-0.1,2-0.8l6.9-12.2
		c0.3-0.7,0.2-1.6-0.3-2.2l-10.5-10.9c-0.5-0.6-0.8-1.5-0.6-2.3L156.2,95z M89.4,127.6c-24.2-4.1-40.5-27.1-36.4-51.2
		c4.1-24.2,27.1-40.5,51.2-36.4c24.2,4.1,40.5,27,36.4,51.2S113.6,131.7,89.4,127.6L89.4,127.6L89.4,127.6z"/>
	<polygon fill="#231F20" stroke="#231F20" stroke-width="3" stroke-miterlimit="10" points="118.2,61.5 114,65.9 112.1,67.9 
		90.1,90.8 80.9,79.1 71,89.9 89.9,108.2 112.2,74.4 115.6,69.2 120.4,62 	"/>
	<path stroke="#FFFFFF" stroke-width="4" stroke-miterlimit="10" d="M130,127.7c-3.6,2-6.8,4.1-10.1,5.6c-11,5.2-23.5,6.5-35.4,3.6
		c-13.3-3.1-23.9-10.3-31.9-21.4c-7-9.6-10.6-21.4-10.1-33.3c0.5-15.5,6.5-28.6,18.1-39c12-10.7,26.2-15.2,42.2-13.5
		c14,1.4,25.7,7.6,35,18.1s13.7,22.9,13.7,36.9c0,10.8-3.4,21.4-9.7,30.2c-0.9,1.3-1.1,2,0.3,3.2c2.6,2.3,5,4.9,7.4,7.3
		c0.4,0.4,1,0.6,1.7,0.6c5-0.6,9.1,1.1,12.5,4.7c9.2,9.3,36.1,36,40.1,40.2c5.4,5.6,5.2,14.6-0.4,20c-1.2,1.2-2.6,2.1-4.1,2.8
		c-5.4,2.4-11.6,1-16.3-3.6c-13.1-13.1-26.3-26.4-39.5-39.5c-3.4-3.4-5-7.4-4.5-12.2c0.1-0.5,0-1.1-0.3-1.5
		C135.8,133.6,132.8,130.6,130,127.7z M57.9,83.9c0,21.5,17.5,39,39,39s39-17.5,39-39s-17.5-39-39-39l0,0C75.4,45,58,62.4,57.9,83.9
		L57.9,83.9z"/>
	<g>
		<path fill="#231F20" d="M183.7,9.4h24l11.2,73.9l14-73.9h21.5l13.2,74.4l13.1-74.4h19.8l-22.9,107.5h-21.1l-14.3-74.3l-14.6,74.3
			h-20.8L183.7,9.4z"/>
	</g>
	<g>
		<path fill="#231F20" d="M304.2,9.4h22.1v36.2c4-6.7,10.4-10,19.4-10c5.4,0,9.6,1.3,12.7,3.8s5.1,5.7,5.9,9.5s1.3,9.4,1.3,16.7
			v50.8h-22.1V65.6c0-5.2-0.5-8.6-1.4-10.3c-1-1.7-3-2.5-6-2.5s-5.4,0.8-7.1,2.4c-1.8,1.6-2.7,5.3-2.7,11.1v50.2h-22.1L304.2,9.4
			L304.2,9.4z"/>
	</g>
	<g>
		<path fill="#231F20" d="M399.7,30.7h-22.4V8.9h22.4V30.7z M377.5,37.2h22.1v79.1h-22.1V37.2z"/>
	</g>
	<g>
		<path fill="#231F20" d="M412.6,37.2H433V49c4.3-8.6,10.3-12.8,18-12.8c7.2,0,13.3,3.2,18.1,9.7c4.8,6.4,7.2,16.3,7.2,29.6
			c0,13.9-2.3,24.4-7,31.4s-11.3,10.6-19.8,10.6c-6.1,0-11.1-2.3-15.1-7v32.7h-21.7v-106C412.7,37.2,412.6,37.2,412.6,37.2z
			 M434.3,83.9c0,7.6,0.6,12.5,1.8,14.7c1.2,2.3,3.7,3.4,7.4,3.4c3.3,0,5.8-1.5,7.4-4.5s2.4-10.4,2.4-22c0-9.7-0.7-16.3-2.1-19.7
			s-3.8-5.2-7.1-5.2c-2.8,0-5.1,1.1-7,3.2c-1.9,2.2-2.9,7.2-2.9,15.1L434.3,83.9L434.3,83.9z"/>
	</g>
	<g>
		<path fill="#231F20" d="M551.3,32.7l-19.4,7.4c-2.8-8.8-7.8-13.2-15.2-13.2c-3.4,0-6.2,1-8.2,2.9c-2,2-3,4.2-3,6.9
			c0,3,1.2,5.4,3.6,7.2s7.3,4.2,14.9,7.1c6.9,2.6,12.3,5.1,16.3,7.6c3.9,2.5,7.1,5.9,9.6,10.2c2.4,4.3,3.6,9.3,3.6,15
			c0,10-3.4,18.2-10.3,24.6c-6.9,6.4-16.1,9.6-27.6,9.6c-19.4,0-31.7-9.8-37.1-29.4l20.5-5.9c2.5,10.8,8.2,16.1,17.2,16.1
			c4.1,0,7.4-1.1,9.9-3.2s3.8-4.9,3.8-8.3c0-2.6-0.9-4.9-2.7-7s-5.8-4.2-12.2-6.5c-8.2-2.9-14.3-5.6-18.3-7.9
			c-4-2.4-7.3-5.8-9.9-10.2s-3.9-9.4-3.9-15.1c0-9.6,3.1-17.5,9.3-23.6s14.4-9.2,24.6-9.2C535.1,7.8,546.7,16.1,551.3,32.7z"/>
	</g>
	<g>
		<path fill="#231F20" d="M564.5,13l21.5-0.7v25h14.6v17.4H586v29.1c0,5.4,0.1,8.9,0.4,10.5c0.2,1.6,1,2.9,2.3,4s3.6,1.6,6.7,1.6
			c1.7,0,3.8-0.1,6.3-0.2v16.8c-4.9,1.1-9.4,1.6-13.5,1.6c-6.7,0-11.8-1.3-15.4-3.8c-3.6-2.6-5.8-5.8-6.8-9.6
			c-1-3.9-1.5-10-1.5-18.4V54.8h-8.8V37.2h8.8V13z"/>
	</g>
	<g>
		<path fill="#231F20" d="M629.2,62.4l-20.9-2c1-7.9,4.4-14,10.1-18.3c5.8-4.3,13-6.4,21.8-6.4c7.4,0,13.4,1.4,17.9,4.3
			c4.5,2.8,7.3,6.1,8.5,9.9s1.8,9.6,1.8,17.5V99c0,9.8,0.4,15.7,1.3,17.5h-20.5c-0.7-2.1-1.1-6.2-1.1-12.1
			c-4.8,9.2-12.1,13.8-21.7,13.8c-6.2,0-11.2-1.8-15-5.5c-3.9-3.7-5.8-9-5.8-16.1c0-8.8,2.9-15.7,8.8-20.5
			c5.8-4.8,16.5-7.7,31.9-8.7v-3c0-5.3-0.5-8.9-1.6-11c-1.1-2-3.1-3.1-6.2-3.1C632.9,50.2,629.8,54.3,629.2,62.4z M646.3,78.6
			c-6.4,0.7-11,2.1-13.7,4.3c-2.7,2.1-4.1,5.7-4.1,10.7c0,6.7,2.5,10,7.4,10c2.7,0,5.1-1.5,7.2-4.5c2.2-3,3.3-8.5,3.3-16.5v-4H646.3
			z"/>
	</g>
	<g>
		<path fill="#231F20" d="M684.7,13l21.5-0.7v25h14.6v17.4h-14.6v29.1c0,5.4,0.1,8.9,0.4,10.5c0.2,1.6,1,2.9,2.3,4s3.6,1.6,6.7,1.6
			c1.7,0,3.8-0.1,6.3-0.2v16.8c-4.9,1.1-9.4,1.6-13.5,1.6c-6.7,0-11.8-1.3-15.4-3.8c-3.6-2.6-5.8-5.8-6.8-9.6
			c-1-3.9-1.5-10-1.5-18.4V54.8h-8.8V37.2h8.8V13z"/>
	</g>
	<g>
		<path fill="#231F20" d="M230,172l-2.2,13.2h-4l5.4-32.6h9c2.6,0,4.7,0.2,6.2,0.7s2.8,1.5,3.8,3.1s1.6,3.3,1.6,5.2
			c0,2.5-0.9,4.9-2.7,7.1s-5.3,3.3-10.5,3.3L230,172L230,172z M230.5,168.8h4.5c2.8,0,4.8-0.1,6-0.4c1.2-0.3,2.3-1,3.2-2.3
			c0.9-1.2,1.4-2.7,1.4-4.4c0-1.3-0.3-2.5-0.8-3.4c-0.6-1-1.3-1.6-2.1-2s-2.4-0.5-4.5-0.5h-5.4L230.5,168.8z"/>
	</g>
	<g>
		<path fill="#231F20" d="M259.5,185.9c-3,0-5.4-1-7.1-3.1s-2.6-4.8-2.6-8c0-3.7,1.1-7,3.4-9.9s5.2-4.4,8.8-4.4c2.9,0,5.3,1,7,3
			c1.8,2,2.6,4.8,2.6,8.2c0,3.6-1.1,6.9-3.4,9.8S263.1,185.9,259.5,185.9z M259.7,182.9c2.6,0,4.5-1.3,5.9-3.8s2.1-5.4,2.1-8.7
			c0-2.5-0.6-4.3-1.8-5.4c-1.2-1.1-2.6-1.7-4.2-1.7c-2.5,0-4.5,1.3-5.9,3.8s-2.1,5.3-2.1,8.5c0,2.4,0.5,4.2,1.6,5.5
			C256.5,182.3,257.9,182.9,259.7,182.9z"/>
	</g>
	<g>
		<path fill="#231F20" d="M283.3,152.6l-5.4,32.6h-3.7l5.4-32.6H283.3z"/>
	</g>
	<g>
		<path fill="#231F20" d="M288.2,185.2h-3.8l4.1-24.2h3.8L288.2,185.2z M293.5,157h-4.8l0.7-4.4h4.8L293.5,157z"/>
	</g>
	<g>
		<path fill="#231F20" d="M302.1,163.9l-2.2,13.1c-0.3,1.5-0.4,2.5-0.4,3c0,1.8,1,2.7,3.1,2.7c0.7,0,1.8-0.1,3.3-0.2l-0.4,3
			c0,0-0.2,0-0.7,0.1c-1.3,0.1-2.3,0.2-2.9,0.2c-4,0-6-1.8-6-5.3c0-0.9,0.2-2.6,0.6-5l1.9-11.5h-3.7l0.5-2.9h3.8l0.9-5.9l3.7-0.3
			l-1,6.2h5.5l-0.5,2.9h-5.5L302.1,163.9L302.1,163.9z"/>
	</g>
	<g>
		<path fill="#231F20" d="M312.5,185.2h-3.8l4.1-24.2h3.8L312.5,185.2z M317.8,157H313l0.7-4.4h4.8L317.8,157z"/>
	</g>
	<g>
		<path fill="#231F20" d="M339.7,168.7l-3.7,0.8c-0.2-1.9-0.9-3.4-1.9-4.5c-1-1-2.2-1.6-3.6-1.6c-2.5,0-4.4,1.3-5.7,3.8
			c-1.3,2.6-1.9,5.3-1.9,8.3c0,2.3,0.5,4.1,1.6,5.2c1,1.2,2.4,1.8,4,1.8c2.9,0,5.1-1.9,6.7-5.8l3.1,1.1c-0.8,2.5-2.1,4.4-3.9,5.8
			c-1.8,1.4-3.9,2.1-6.2,2.1c-3,0-5.2-1.2-6.8-3.5s-2.3-4.9-2.3-7.8c0-3.6,1.1-6.9,3.2-9.9s4.9-4.5,8.4-4.5c2.4,0,4.5,0.8,6.2,2.4
			C338.5,164.2,339.4,166.2,339.7,168.7z"/>
	</g>
	<g>
		<path fill="#231F20" d="M359.9,166.2l-3.1,1.3c-1.1-2.7-3.2-4.1-6.4-4.1c-1.4,0-2.6,0.4-3.5,1.1s-1.3,1.6-1.3,2.6s0.3,1.8,1,2.3
			s2,0.9,4,1.4l1.5,0.4c1.7,0.4,3,0.8,3.9,1.3s1.7,1.2,2.3,2.2s1,2.1,1,3.4c0,2.2-0.8,4-2.5,5.5s-4,2.3-6.9,2.3
			c-2.1,0-4.1-0.4-5.9-1.2s-3.4-2.6-4.7-5.4l3.5-1.2c1.1,3.2,3.6,4.8,7.3,4.8c1.8,0,3.2-0.4,4.1-1.2c1-0.8,1.5-1.8,1.5-3
			c0-0.9-0.3-1.7-0.9-2.2s-1.9-1.1-3.9-1.5l-1.3-0.3c-1.9-0.4-3.3-0.9-4.3-1.4s-1.8-1.2-2.5-2.1s-1-2-1-3.3c0-2,0.8-3.7,2.3-5.2
			s3.7-2.1,6.4-2.1C355.3,160.5,358.5,162.4,359.9,166.2z"/>
	</g>
	<g>
		<path fill="#231F20" d="M377.8,185.2h-1.6l5.4-32.6h3.8l-2,12.2c2.1-3,4.6-4.4,7.4-4.4c2.6,0,4.6,0.9,6,2.8
			c1.5,1.9,2.2,4.4,2.2,7.5c0,3.9-1.1,7.4-3.2,10.5s-4.9,4.6-8.3,4.6s-5.9-1.7-7.5-5L377.8,185.2z M387.4,183c2.3,0,4.2-1.3,5.6-3.9
			c1.4-2.6,2.1-5.6,2.1-9.1c0-2.1-0.5-3.7-1.4-4.9s-2.1-1.7-3.6-1.7c-2.4,0-4.4,1.4-6,4.1c-1.6,2.7-2.5,5.6-2.5,8.5
			c0,2.2,0.6,3.9,1.7,5.1C384.4,182.4,385.8,183,387.4,183z"/>
	</g>
	<g>
		<path fill="#231F20" d="M421.8,161l-13.3,25.5c-1.6,3.2-3.2,5.2-4.6,6s-3,1.2-4.5,1.2c-0.7,0-1.5-0.1-2.4-0.2l0.5-3.2
			c0.8,0.2,1.5,0.2,2.1,0.2c2.6,0,4.5-1.4,5.9-4.3l0.8-1.6l-5.1-23.6h3.8l3.9,18.4l9.5-18.4L421.8,161L421.8,161z"/>
	</g>
	<g>
		<path fill="#231F20" d="M440.5,163.9l-2.2,13.1c-0.3,1.5-0.4,2.5-0.4,3c0,1.8,1,2.7,3.1,2.7c0.7,0,1.8-0.1,3.3-0.2l-0.4,3
			c0,0-0.2,0-0.7,0.1c-1.3,0.1-2.3,0.2-2.9,0.2c-4,0-6-1.8-6-5.3c0-0.9,0.2-2.6,0.6-5l1.9-11.5h-3.7l0.5-2.9h3.8l0.9-5.9l3.7-0.3
			l-1,6.2h5.5L446,164h-5.5V163.9z"/>
	</g>
	<g>
		<path fill="#231F20" d="M456.7,152.6l-2.2,12.9c2.2-3.5,4.9-5.2,8.1-5.2c2,0,3.6,0.6,4.9,1.8s2,2.8,2,4.9c0,0.8-0.1,1.9-0.4,3.3
			l-2.5,14.9H463l2.5-14.9c0.2-1.1,0.3-2.1,0.3-3c0-1.3-0.4-2.3-1.1-3s-1.7-1.1-2.9-1.1c-1.8,0-3.6,1-5.3,3s-2.9,5-3.5,9l-1.7,9.9
			h-3.7l5.4-32.6h3.7L456.7,152.6L456.7,152.6z"/>
	</g>
	<g>
		<path fill="#231F20" d="M494.4,179.5c-2.5,4.2-6,6.4-10.5,6.4c-3,0-5.5-1-7.4-3s-2.9-4.7-2.9-8.1c0-4.2,1.2-7.6,3.6-10.4
			c2.4-2.8,5.3-4.2,8.9-4.2c1.7,0,3.4,0.4,4.9,1.1c1.5,0.7,2.7,1.9,3.5,3.5s1.3,3.5,1.3,5.8c0,0.8-0.1,1.7-0.2,2.8h-17.8
			c-0.1,0.8-0.1,1.4-0.1,1.9c0,2.2,0.6,4,1.7,5.4s2.7,2.1,4.7,2.1c1.4,0,2.6-0.3,3.7-0.9c1.1-0.6,2.3-1.9,3.6-3.8L494.4,179.5z
			 M478.1,170.6h13.8c0-0.5,0-0.9,0-1.1c0-2-0.6-3.5-1.7-4.7s-2.6-1.7-4.3-1.7c-2,0-3.7,0.7-5.1,2.2
			C479.3,166.8,478.5,168.6,478.1,170.6z"/>
	</g>
	<g>
		<path fill="#231F20" d="M533.1,185.2h-3.2l-12.8-27.9l-4.7,27.9h-3.2l5.5-32.6h4.4l11.9,26l4.3-26h3.2L533.1,185.2z"/>
	</g>
	<g>
		<path fill="#231F20" d="M562.8,161l-4.1,24.2h-3.2l1-5.8c-2.1,4.3-5.1,6.5-8.8,6.5c-1.4,0-2.7-0.3-3.7-1s-1.8-1.5-2.3-2.4
			s-0.7-2.1-0.7-3.5c0-0.9,0.2-2.4,0.5-4.4l2.3-13.5h3.7l-2.5,14.7c-0.3,1.7-0.4,2.7-0.4,3.1c0,1.3,0.4,2.3,1.1,3
			c0.7,0.7,1.7,1.1,2.9,1.1c2,0,3.9-1.1,5.6-3.3c1.7-2.2,2.9-5.3,3.6-9.2l1.5-9.3h3.5L562.8,161L562.8,161z"/>
	</g>
	<g>
		<path fill="#231F20" d="M597.6,185.2h-3.7l2.3-14c0.3-1.6,0.4-2.7,0.4-3.5c0-1.5-0.4-2.6-1.2-3.2c-0.8-0.7-1.7-1-2.8-1
			c-1.6,0-3.1,0.9-4.5,2.7s-2.5,4.5-3.1,8.3l-1.8,10.8h-3.8l2.3-13.9c0.3-1.8,0.5-3.1,0.5-3.8c0-1.4-0.4-2.4-1.1-3.1
			c-0.7-0.7-1.6-1.1-2.7-1.1c-0.8,0-1.7,0.3-2.5,0.8c-0.9,0.5-1.7,1.4-2.5,2.7s-1.3,2.4-1.6,3.5s-0.7,3.2-1.2,6.1l-1.6,8.7h-3.8
			l4.1-24.2h3.5l-0.6,4c2.2-3.1,4.6-4.6,7.3-4.6c3.3,0,5.4,1.7,6.3,5.2c2.2-3.5,4.9-5.3,7.9-5.3c2,0,3.6,0.6,4.9,1.8
			s1.9,2.8,1.9,4.8c0,0.9-0.1,2-0.3,3.3L597.6,185.2z"/>
	</g>
	<g>
		<path fill="#231F20" d="M605.7,185.2h-1.6l5.4-32.6h3.8l-2,12.2c2.1-3,4.6-4.4,7.4-4.4c2.6,0,4.6,0.9,6,2.8
			c1.5,1.9,2.2,4.4,2.2,7.5c0,3.9-1.1,7.4-3.2,10.5c-2.1,3.1-4.9,4.6-8.3,4.6c-3.4,0-5.9-1.7-7.5-5L605.7,185.2z M615.4,183
			c2.3,0,4.2-1.3,5.6-3.9c1.4-2.6,2.1-5.6,2.1-9.1c0-2.1-0.5-3.7-1.4-4.9s-2.1-1.7-3.6-1.7c-2.4,0-4.4,1.4-6,4.1
			c-1.6,2.7-2.5,5.6-2.5,8.5c0,2.2,0.6,3.9,1.7,5.1C612.4,182.4,613.8,183,615.4,183z"/>
	</g>
	<g>
		<path fill="#231F20" d="M650.1,179.5c-2.5,4.2-6,6.4-10.5,6.4c-3,0-5.5-1-7.4-3s-2.9-4.7-2.9-8.1c0-4.2,1.2-7.6,3.6-10.4
			c2.4-2.8,5.3-4.2,8.9-4.2c1.7,0,3.4,0.4,4.9,1.1c1.5,0.7,2.7,1.9,3.5,3.5s1.3,3.5,1.3,5.8c0,0.8-0.1,1.7-0.2,2.8h-17.8
			c-0.1,0.8-0.1,1.4-0.1,1.9c0,2.2,0.6,4,1.7,5.4s2.7,2.1,4.7,2.1c1.4,0,2.6-0.3,3.7-0.9c1.1-0.6,2.3-1.9,3.6-3.8L650.1,179.5z
			 M633.9,170.6h13.8c0-0.5,0-0.9,0-1.1c0-2-0.6-3.5-1.7-4.7s-2.6-1.7-4.3-1.7c-2,0-3.7,0.7-5.1,2.2
			C635.1,166.8,634.2,168.6,633.9,170.6z"/>
	</g>
	<g>
		<path fill="#231F20" d="M658.6,185.2h-3.7L659,161h3.7l-1.2,6.3c1.3-2.5,2.6-4.3,4-5.4c1.4-1.1,3.1-1.7,5-1.7c0.2,0,0.5,0,0.8,0
			l-0.6,3.8h-0.9c-1.5,0-2.7,0.3-3.6,0.8c-0.9,0.6-1.8,1.3-2.5,2.4s-1.5,2.3-2.1,3.8c-0.7,1.5-1.3,4.4-2,8.7L658.6,185.2z"/>
	</g>
	<g>
		<path fill="#231F20" d="M690,166.2l-3.1,1.3c-1.1-2.7-3.2-4.1-6.4-4.1c-1.4,0-2.6,0.4-3.5,1.1c-0.9,0.7-1.3,1.6-1.3,2.6
			s0.3,1.8,1,2.3s2,0.9,4,1.4l1.5,0.4c1.7,0.4,3,0.8,3.9,1.3s1.7,1.2,2.3,2.2s1,2.1,1,3.4c0,2.2-0.8,4-2.5,5.5s-4,2.3-6.9,2.3
			c-2.1,0-4.1-0.4-5.9-1.2c-1.8-0.8-3.4-2.6-4.7-5.4l3.5-1.2c1.1,3.2,3.6,4.8,7.3,4.8c1.8,0,3.2-0.4,4.1-1.2c1-0.8,1.5-1.8,1.5-3
			c0-0.9-0.3-1.7-0.9-2.2c-0.6-0.5-1.9-1.1-3.9-1.5l-1.3-0.3c-1.9-0.4-3.3-0.9-4.3-1.4s-1.8-1.2-2.5-2.1s-1-2-1-3.3
			c0-2,0.8-3.7,2.3-5.2c1.6-1.4,3.7-2.1,6.4-2.1C685.5,160.5,688.6,162.4,690,166.2z"/>
	</g>
</g>
</svg>
